<svg width="980" height="260" viewBox="0 0 980 260" fill="none" xmlns="http://www.w3.org/2000/svg" role="img" aria-labelledby="title desc">
  <title id="title">Atlântico Studio</title>
  <desc id="desc">Wordmark premium com símbolo oceânico dourado.</desc>
  <defs>
    <linearGradient id="gold" x1="112" y1="34" x2="196" y2="202" gradientUnits="userSpaceOnUse">
      <stop offset="0" stop-color="#F8E7A3"/>
      <stop offset="0.45" stop-color="#C69A3D"/>
      <stop offset="1" stop-color="#7A5520"/>
    </linearGradient>
    <linearGradient id="navy" x1="0" y1="0" x2="980" y2="260" gradientUnits="userSpaceOnUse">
      <stop offset="0" stop-color="#F5F1E6"/>
      <stop offset="1" stop-color="#D3C09D"/>
    </linearGradient>
    <filter id="soft" x="-20%" y="-20%" width="140%" height="140%">
      <feDropShadow dx="0" dy="14" stdDeviation="18" flood-color="#000000" flood-opacity="0.25"/>
    </filter>
  </defs>
  <g filter="url(#soft)">
    <circle cx="130" cy="130" r="90" stroke="url(#gold)" stroke-width="4" opacity="0.95"/>
    <path d="M58 142C80 122 100 116 122 124C150 134 161 156 196 137" stroke="url(#gold)" stroke-width="7" stroke-linecap="round"/>
    <path d="M72 163C94 149 115 147 137 156C161 166 174 181 199 161" stroke="url(#gold)" stroke-width="4" stroke-linecap="round" opacity="0.75"/>
    <path d="M130 57L146 110L202 110L157 143L174 197L130 164L85 197L102 143L57 110L113 110L130 57Z" fill="url(#gold)" opacity="0.12"/>
    <path d="M130 69L140 103H176L147 124L158 158L130 137L102 158L113 124L84 103H120L130 69Z" fill="url(#gold)" opacity="0.85"/>
  </g>
  <g>
    <text x="255" y="124" fill="url(#navy)" font-family="Georgia, 'Times New Roman', serif" font-size="62" letter-spacing="9" font-weight="700">ATLÂNTICO</text>
    <text x="260" y="174" fill="#CDA85A" font-family="Inter, Arial, sans-serif" font-size="20" letter-spacing="16" font-weight="600">STUDIO</text>
    <line x1="260" y1="194" x2="730" y2="194" stroke="#CDA85A" stroke-width="1" opacity="0.45"/>
  </g>
</svg>
