<svg xmlns="http://www.w3.org/2000/svg" viewBox="0 0 1200 900" role="img" aria-label="Atlântico Studio signal campaign">
  <defs><linearGradient id="bg" x1="0" y1="0" x2="1" y2="1"><stop offset="0" stop-color="#02080d"/><stop offset=".55" stop-color="#061823"/><stop offset="1" stop-color="#0d4052"/></linearGradient><filter id="glow"><feGaussianBlur stdDeviation="12" result="b"/><feMerge><feMergeNode in="b"/><feMergeNode in="SourceGraphic"/></feMerge></filter></defs>
  <rect width="1200" height="900" fill="url(#bg)"/>
  <g filter="url(#glow)" fill="none"><path d="M80 625 C270 520 370 705 560 590 C730 490 830 660 1120 515" stroke="#f2d275" stroke-width="6" stroke-opacity=".75"/><path d="M70 720 C250 610 380 790 560 690 C760 580 840 740 1130 610" stroke="#1fa6bd" stroke-width="5" stroke-opacity=".48"/></g>
  <g fill="#f2d275" opacity=".68"><circle cx="250" cy="470" r="8"/><circle cx="410" cy="380" r="5"/><circle cx="570" cy="500" r="10"/><circle cx="780" cy="320" r="7"/><circle cx="930" cy="450" r="6"/></g>
  <path d="M600 235 l42 85 94 13-68 67 16 94-84-44-84 44 16-94-68-67 94-13z" fill="#d4af37" opacity=".52"/>
</svg>
