<svg xmlns="http://www.w3.org/2000/svg" viewBox="0 0 1200 900" role="img" aria-label="Atlântico Studio visual horizon">
  <defs>
    <linearGradient id="bg" x1="0" y1="0" x2="1" y2="1"><stop offset="0" stop-color="#082538"/><stop offset=".45" stop-color="#03111a"/><stop offset="1" stop-color="#02080d"/></linearGradient>
    <radialGradient id="gold" cx="70%" cy="18%" r="45%"><stop offset="0" stop-color="#f2d275" stop-opacity=".55"/><stop offset="1" stop-color="#f2d275" stop-opacity="0"/></radialGradient>
    <filter id="blur"><feGaussianBlur stdDeviation="18"/></filter>
  </defs>
  <rect width="1200" height="900" fill="url(#bg)"/>
  <rect width="1200" height="900" fill="url(#gold)"/>
  <path d="M0 520 C160 470 260 590 420 530 C570 470 690 585 840 530 C990 475 1080 500 1200 455 L1200 900 L0 900 Z" fill="#0c6175" opacity=".34"/>
  <path d="M0 590 C170 535 280 660 450 590 C615 520 710 650 900 586 C1035 540 1135 560 1200 520" fill="none" stroke="#f2d275" stroke-opacity=".38" stroke-width="5"/>
  <circle cx="910" cy="260" r="170" fill="#d4af37" opacity=".14" filter="url(#blur)"/>
  <path d="M590 242 l64 130 143 20-104 101 25 143-128-67-128 67 25-143-104-101 143-20z" fill="#d4af37" opacity=".55"/>
</svg>
